# xmcd
#
# Track frame offsets:
#	150
#	13002
#	23598
#	36493
#	48766
#	59733
#	71778
#	85073
#	94503
#	108375
#	120167
#	130963
#	140397
#	152158
#	162064
#	173098
#	181780
#	193301
#	207822
#	220507
#
# Disc length: 3109 seconds
#
# Revision: 2
# Processed by: cddbd v1.5.2PL0 Copyright (c) Steve Scherf et al.
# Submitted via: audiograbber 1.83.01
#
DISCID=0a0c2314
DTITLE=Various Artist - 200 Country Classics Vol.1  -  CD 5
DYEAR=2008
DGENRE=Country
TTITLE0=Lynn Anderson - Rose Garden
TTITLE1=Hank Locklin - Please Help Me I`m Falling
TTITLE2=Kenny Rogers And The First Edition - Ruby Don`t Take Your Love To Town
TTITLE3=Glen Campbell - By The Time I Get To Phoenix
TTITLE4=Wanda Jackson - Tears Will Be The Cheaser
TTITLE5=Billie Joe Spears - Look What They`ve Done To My Song Ma
TTITLE6=Nat Stuckey - Sweet Thang
TTITLE7=Willie Nelson - I`m Building Heartaches
TTITLE8=Moe Bandy - I Cheated Me Right Out Of You
TTITLE9=Skeeter Davis - I Can`t Help You (I`m Falling Too)
TTITLE10=Roger Miller - Husbands And Wives
TTITLE11=Hank Locklin - Geisha Girl
TTITLE12=Charly Pride - There Goes My Everything
TTITLE13=Hank Locklin - We`re Gonna Go Fishing
TTITLE14=Donna Fargo - The Happiest Girl In The Whole USA
TTITLE15=Buck Owens - After The Dance
TTITLE16=Sammi Smith - Help Me Make It Through The Night
TTITLE17=Johnny Paycheck - I`m The Only Hell My Mama Ever Raised
TTITLE18=Hank Snow - I`m Moving On
TTITLE19=Charley Pride - Crystal Chandeliers
EXTD=
EXTT0=
EXTT1=
EXTT2=
EXTT3=
EXTT4=
EXTT5=
EXTT6=
EXTT7=
EXTT8=
EXTT9=
EXTT10=
EXTT11=
EXTT12=
EXTT13=
EXTT14=
EXTT15=
EXTT16=
EXTT17=
EXTT18=
EXTT19=
PLAYORDER=
